<svg width="35" height="25" viewBox="0 0 35 25" fill="none" xmlns="http://www.w3.org/2000/svg">
<path d="M3.86831 0H31.1317C33.7037 0 35 1.22917 35 3.72917V21.2708C35 23.75 33.7037 25 31.1317 25H3.86831C1.2963 25 0 23.75 0 21.2708V3.72917C0 1.22917 1.2963 0 3.86831 0ZM17.4897 17.9167L31.358 6.39583C31.8519 5.97917 32.2428 5.02083 31.6255 4.16667C31.0288 3.3125 29.9383 3.29167 29.2181 3.8125L17.4897 11.8542L5.78189 3.8125C5.06173 3.29167 3.97119 3.3125 3.37449 4.16667C2.7572 5.02083 3.14815 5.97917 3.64198 6.39583L17.4897 17.9167Z" fill="black"/>
</svg>
