<svg width="35" height="35" viewBox="0 0 35 35" fill="none" xmlns="http://www.w3.org/2000/svg">
<path fill-rule="evenodd" clip-rule="evenodd" d="M0 15.5556C0 8.22306 -2.38419e-07 4.55583 2.27889 2.27889C4.55778 0.0019443 8.22306 0 15.5556 0H19.4444C26.7769 0 30.4442 -2.38419e-07 32.7211 2.27889C34.9981 4.55778 35 8.22306 35 15.5556V19.4444C35 26.7769 35 30.4442 32.7211 32.7211C30.4422 34.9981 26.7769 35 19.4444 35H15.5556C8.22306 35 4.55583 35 2.27889 32.7211C0.0019443 30.4422 0 26.7769 0 19.4444V15.5556ZM29.1667 8.75C29.1667 9.52355 28.8594 10.2654 28.3124 10.8124C27.7654 11.3594 27.0235 11.6667 26.25 11.6667C25.4765 11.6667 24.7346 11.3594 24.1876 10.8124C23.6406 10.2654 23.3333 9.52355 23.3333 8.75C23.3333 7.97645 23.6406 7.23459 24.1876 6.6876C24.7346 6.14062 25.4765 5.83333 26.25 5.83333C27.0235 5.83333 27.7654 6.14062 28.3124 6.6876C28.8594 7.23459 29.1667 7.97645 29.1667 8.75ZM21.3889 19.4444C21.3889 20.4758 20.9792 21.465 20.2499 22.1943C19.5205 22.9236 18.5314 23.3333 17.5 23.3333C16.4686 23.3333 15.4794 22.9236 14.7501 22.1943C14.0208 21.465 13.6111 20.4758 13.6111 19.4444C13.6111 18.413 14.0208 17.4239 14.7501 16.6946C15.4794 15.9653 16.4686 15.5556 17.5 15.5556C18.5314 15.5556 19.5205 15.9653 20.2499 16.6946C20.9792 17.4239 21.3889 18.413 21.3889 19.4444ZM25.2778 19.4444C25.2778 21.5072 24.4583 23.4855 22.9997 24.9442C21.5411 26.4028 19.5628 27.2222 17.5 27.2222C15.4372 27.2222 13.4589 26.4028 12.0003 24.9442C10.5417 23.4855 9.72222 21.5072 9.72222 19.4444C9.72222 17.3816 10.5417 15.4033 12.0003 13.9447C13.4589 12.4861 15.4372 11.6667 17.5 11.6667C19.5628 11.6667 21.5411 12.4861 22.9997 13.9447C24.4583 15.4033 25.2778 17.3816 25.2778 19.4444Z" fill="black"/>
</svg>
