<svg width="21" height="19" viewBox="0 0 21 19" fill="none" xmlns="http://www.w3.org/2000/svg">
<path d="M20.09 4.98001L20.04 11.28C20.0408 11.9012 19.9185 12.5164 19.68 13.09C19.4438 13.662 19.0969 14.1817 18.6593 14.6193C18.2217 15.0569 17.702 15.4038 17.13 15.64C16.5564 15.8784 15.9412 16.0008 15.32 16H12.99L10.99 18C10.8656 18.1293 10.7158 18.2314 10.55 18.3C10.3777 18.3797 10.1899 18.4207 10 18.42C9.81114 18.4208 9.62405 18.3834 9.45002 18.31C9.27581 18.2325 9.11928 18.1202 8.99002 17.98L7.04002 16.04H4.71002C4.09065 16.04 3.47736 15.9179 2.90527 15.6805C2.33317 15.4432 1.8135 15.0954 1.376 14.6569C0.93851 14.2185 0.591782 13.6981 0.355672 13.1255C0.119561 12.5529 -0.00129652 11.9394 1.84854e-05 11.32V4.72001C-0.00172101 4.09977 0.119322 3.48532 0.356171 2.91207C0.593019 2.33883 0.940988 1.81814 1.38002 1.38001C2.2674 0.503072 3.46246 0.00781877 4.71002 1.06393e-05H15.37C15.9902 -0.00130756 16.6046 0.119879 17.1778 0.356615C17.7511 0.59335 18.2719 0.940972 18.7105 1.37953C19.1491 1.81808 19.4967 2.33893 19.7334 2.91219C19.9701 3.48544 20.0913 4.0998 20.09 4.72001V4.98001Z" fill="black" fill-opacity="0.15"/>
</svg>
